<svg id="Layer_1" height="512" viewBox="0 0 512 512" width="512" xmlns="http://www.w3.org/2000/svg" data-name="Layer 1"><path d="m456 266.851v-149.79c0-43.322-35.156-79.061-78.479-79.061h-146.521v-23.365c0-4.419-3.827-7.635-8.245-7.635h-77.191a7.333 7.333 0 0 0 -7.564 7.635v73.365h-8a8 8 0 0 0 -8 8v55.134c-30.691 12.284-57.113 34.144-76.67 63.505-21 31.531-32.1 68.94-32.1 108.183 0 48.526 17.681 94.291 49.788 128.864 32.145 34.616 74.622 53.679 119.6 53.679 44.869 0 86.947-19.085 118.484-53.739 30.988-34.052 48.186-79.209 48.539-127.3a8.173 8.173 0 0 0 .18-.95 7.977 7.977 0 0 0 -.185-2.914 190.183 190.183 0 0 0 -33.212-105.917c-19.824-28.87-47.509-51.223-78.424-63.438v-55.107a7.84 7.84 0 0 0 -7-7.962v-34.038h146.521c34.5 0 62.479 28.561 62.479 63.061v149.358c-25 5.175-44 37.662-44 78.219 0 44.276 22.478 78.959 51.146 78.959s51.09-34.683 51.09-78.959c-.001-39.561-18.236-71.438-42.236-77.787zm-302-220.851h9v20h-9zm0 36h16.6c4.418 0 8.4-3.489 8.4-7.908v-36.419c0-4.419-3.979-7.673-8.4-7.673h-16.6v-7h61v65h-61zm-95.354 141.509c18.487-27.755 44.788-48.823 74.056-59.325a8 8 0 0 0 5.3-7.53v-52.654h35v230.394c-4.5-1.6-7.842-4.328-11.686-7.477-6.851-5.611-15.377-12.595-31.4-12.595s-24.551 6.984-31.4 12.595c-6.121 5.014-10.955 8.974-21.264 8.974-9.838 0-14.872-4.2-21.246-9.527-6.343-5.3-14.005-11.692-26.569-12.211a177.392 177.392 0 0 1 29.209-90.644zm230.622 217.349c-28.466 31.28-66.341 48.507-106.65 48.507-40.483 0-78.8-17.248-107.881-48.567-27.729-29.86-43.679-68.912-45.356-110.642 6.722.437 10.769 3.82 16.363 8.49 7.067 5.9 15.861 13.245 31.5 13.245 16.025 0 24.551-6.984 31.4-12.6 6.122-5.013 10.956-8.973 21.264-8.973s15.144 3.96 21.265 8.973c6.851 5.612 15.378 12.6 31.4 12.6s24.551-6.984 31.4-12.6c6.122-5.013 10.956-8.973 21.264-8.973s15.147 3.96 21.269 8.974c6.851 5.611 15.379 12.6 31.4 12.6 15.642 0 24.437-7.344 31.5-13.245 4.926-4.112 8.664-7.213 14.074-8.2-1.673 41.791-17.223 80.753-44.212 110.411zm13.965-217.258a173.832 173.832 0 0 1 30.219 90.717c-11.221 1.149-18.334 7.078-24.283 12.045-6.375 5.323-11.411 9.527-21.251 9.527-10.31 0-15.146-3.96-21.268-8.974-6.851-5.611-15.379-12.595-31.4-12.595s-24.551 6.984-31.4 12.595c-4.688 3.839-8.629 7.053-14.843 8.352v-231.267h33v52.654a8 8 0 0 0 5.336 7.544c29.882 10.556 56.836 31.653 75.89 59.402zm143.934 184c-19.039 0-35.124-28.831-35.124-62.959s16.085-62.959 35.124-62.959 35.124 28.832 35.124 62.959-16.085 62.959-35.124 62.959z"/></svg>