<svg height="512" viewBox="0 0 64 64" width="512" xmlns="http://www.w3.org/2000/svg"><path d="m56.983 8.816a1 1 0 0 0 -.611-.745l-15-6a1.012 1.012 0 0 0 -.372-.071h-18a1.012 1.012 0 0 0 -.372.071l-15 6a1 1 0 0 0 -.613.755l-3 17a1 1 0 0 0 .985 1.174h9v34a1 1 0 0 0 1 1h34a1 1 0 0 0 1-1v-35h9a1 1 0 0 0 .983-1.184zm-13.774-3.855-4.934 7.745a4.005 4.005 0 0 0 -2.466-1.617l4.726-7.089h.273zm-12.348 6.528-4.993-7.489h12.264l-5 7.493a3.949 3.949 0 0 0 -1.132.852 3.852 3.852 0 0 0 -1.139-.856zm-7.669-7.489h.273l4.726 7.089a4.005 4.005 0 0 0 -2.466 1.617l-4.934-7.746zm-17 21 .529-3h7.279v3zm41.808-10v45h-32v-45h-2v5h-6.926l1.814-10.278 10.012-4.006 6.255 9.821a1 1 0 0 0 1.845-.537 2 2 0 0 1 2-2 1.88 1.88 0 0 1 .783.167 1.963 1.963 0 0 1 1.217 1.833 1 1 0 0 0 2 0 1.976 1.976 0 0 1 1.246-1.846 1.845 1.845 0 0 1 .754-.154 2 2 0 0 1 2 2 1 1 0 0 0 1.843.537l6.257-9.821 10.02 4.009 1.925 10.275h-7.045v-5zm2 9v-2h7.42l.375 2z"/></svg>